<?xml version="1.0" encoding="iso-8859-1"?>
<!-- Generator: Adobe Illustrator 16.0.0, SVG Export Plug-In . SVG Version: 6.00 Build 0)  -->
<!DOCTYPE svg PUBLIC "-//W3C//DTD SVG 1.1//EN" "http://www.w3.org/Graphics/SVG/1.1/DTD/svg11.dtd">
<svg version="1.1" id="Capa_1" xmlns="http://www.w3.org/2000/svg" xmlns:xlink="http://www.w3.org/1999/xlink" x="0px"
	y="0px" width="145.167px" height="145.167px" viewBox="0 0 145.167 145.167"
	style="enable-background:new 0 0 145.167 145.167;" xml:space="preserve" fill="#4F4F50">
	<g>
		<path d="M142.532,42.219c2.136-7.43,1.582-15.293-1.646-22.404c-3.596-7.945-10.066-13.999-18.225-17.065
		c-10.821-4.081-22.449-3.596-31.894,1.298c-8.554,4.427-14.649,12.16-17.149,21.771c-0.485,1.875-0.799,3.678-1.036,5.45
		c-0.237-1.772-0.551-3.576-1.036-5.45c-2.5-9.611-8.593-17.344-17.146-21.771C44.95-0.846,33.335-1.331,22.503,2.75
		C14.348,5.812,7.88,11.871,4.278,19.815c-3.23,7.111-3.776,14.974-1.643,22.404c0.021,0.082,0.011,0.153,0.045,0.232
		c0.026,0.071,0.063,0.113,0.09,0.174c0.216,0.718,0.422,1.43,0.688,2.139C8.608,58.435,23.94,65.386,37.633,60.228
		c5.411-2.03,9.711-6.054,12.097-11.322c2.386-5.276,2.581-11.138,0.546-16.559c-0.422-1.107-1.664-1.685-2.787-1.253
		c-1.118,0.422-1.68,1.675-1.258,2.787c1.63,4.335,1.474,9.039-0.438,13.258c-1.912,4.205-5.353,7.436-9.677,9.064
		c-6.486,2.437-13.366,1.545-18.937-1.682c0.997,0.145,2.006,0.264,3.04,0.264c3.542,0,7.246-0.892,10.766-2.637
		c4.137-2.046,7.232-5.577,8.706-9.957c1.474-4.379,1.155-9.073-0.896-13.205c-1.695-3.412-4.611-5.959-8.219-7.169
		c-3.615-1.231-7.475-0.958-10.876,0.728c-2.835,1.405-4.952,3.808-5.962,6.811c-1.015,3-0.799,6.215,0.609,9.06
		c1.178,2.365,3.214,4.164,5.724,5.007c2.507,0.835,5.184,0.654,7.543-0.525c0.578-0.301,0.952-0.793,1.103-1.382
		c0.741-1.01,1.097-2.268,0.777-3.57c-0.562-2.344-2.916-3.762-5.239-3.201c-2.024,0.495-3.277,2.336-3.232,4.329
		c-1.205-0.527-2.22-1.382-2.813-2.586c-0.896-1.803-1.039-3.85-0.39-5.746c0.644-1.901,1.983-3.422,3.787-4.309
		c2.37-1.188,5.065-1.365,7.58-0.524c2.519,0.844,4.554,2.618,5.735,5.013c1.545,3.098,1.782,6.626,0.675,9.903
		c-1.107,3.267-3.422,5.933-6.528,7.467c-4.812,2.381-9.957,2.846-14.136,1.242c-3.467-1.329-6.157-4.103-7.878-7.976
		C5.022,34.958,5.346,27.947,8.22,21.608c3.122-6.88,8.738-12.14,15.81-14.808c9.69-3.639,20.028-3.251,28.395,1.086
		c7.451,3.871,12.759,10.621,14.953,19.029c4.482,17.226-3.533,30.316-13.289,42.467c-0.05,0.053-0.113,0.084-0.163,0.135
		c-0.103,0.118-0.167,0.264-0.259,0.377c-1.729,2.141-3.499,4.245-5.271,6.344c-0.406,0.495-0.794,0.97-1.2,1.444
		c-0.284-3.174-1.732-6.096-4.39-8.479c-4.691-4.208-11.934-3.839-16.134,0.82c-3.525,3.932-3.204,10.007,0.728,13.55
		c1.605,1.439,3.715,2.146,5.837,2.067c2.167-0.11,4.147-1.055,5.595-2.668c2.534-2.816,2.299-7.204-0.525-9.751
		c-0.675-0.611-1.624-0.717-2.391-0.332c-0.082,0.011-0.15-0.026-0.232-0.011c-1.447,0.253-2.426,1.614-2.175,3.059
		c0.227,1.323,1.418,2.23,2.737,2.178c0.066,0.696-0.129,1.403-0.633,1.951c-0.669,0.76-1.587,1.202-2.592,1.239
		c-1.021,0.085-1.975-0.284-2.727-0.959c-2.159-1.941-2.344-5.29-0.403-7.436c2.613-2.903,7.122-3.114,10.043-0.522
		c5.194,4.678,2.56,10.51,0.527,13.579c0,0.011,0,0.021-0.005,0.021c-0.058,0.084-0.129,0.147-0.187,0.242
		c-11.227,14.808-20.92,27.585-14.17,43.442c2.695,6.312,7.76,11.18,14.267,13.7c3.083,1.197,6.354,1.793,9.627,1.793
		c3.808,0,7.615-0.807,11.114-2.41c5.756-2.631,9.724-7.524,11.496-13.136c1.777,5.611,5.746,10.489,11.505,13.142
		c3.501,1.598,7.309,2.404,11.116,2.404c3.27,0,6.544-0.596,9.629-1.793c6.508-2.521,11.575-7.393,14.271-13.7
		c6.75-15.847-2.943-28.635-14.17-43.453c-0.068-0.09-0.132-0.158-0.195-0.242c0,0,0,0,0-0.011
		c-2.03-3.054-4.667-8.891,0.527-13.574c2.932-2.607,7.436-2.386,10.041,0.518c1.935,2.141,1.756,5.494-0.401,7.436
		c-0.749,0.675-1.688,1.018-2.731,0.959c-1.007-0.042-1.925-0.484-2.589-1.239c-0.501-0.559-0.696-1.26-0.633-1.956
		c1.323,0.053,2.515-0.854,2.742-2.178c0.242-1.461-0.738-2.811-2.179-3.064c-0.079-0.01-0.152,0.026-0.231,0.016
		c-0.771-0.379-1.714-0.284-2.389,0.333c-2.816,2.547-3.054,6.919-0.522,9.756c1.445,1.608,3.428,2.558,5.59,2.663
		c2.125,0.095,4.229-0.628,5.838-2.072c3.934-3.539,4.256-9.614,0.723-13.545c-4.198-4.665-11.438-5.05-16.137-0.815
		c-2.647,2.379-4.108,5.3-4.383,8.475c-0.4-0.475-0.791-0.949-1.202-1.444c-1.767-2.1-3.533-4.198-5.273-6.345
		c-0.095-0.113-0.158-0.258-0.259-0.377c-0.042-0.065-0.115-0.092-0.158-0.129c-9.761-12.15-17.776-25.247-13.289-42.473
		c2.184-8.413,7.494-15.174,14.956-19.029c8.353-4.337,18.71-4.725,28.392-1.086c7.077,2.668,12.693,7.929,15.811,14.808
		c2.879,6.35,3.206,13.366,1.17,19.952c-1.724,3.874-4.408,6.642-7.878,7.977c-4.166,1.603-9.323,1.139-14.139-1.242
		c-3.095-1.535-5.415-4.174-6.522-7.467c-1.107-3.267-0.865-6.805,0.675-9.904c1.187-2.378,3.222-4.163,5.737-5.012
		c2.516-0.847,5.205-0.665,7.594,0.529c1.793,0.881,3.138,2.402,3.771,4.304c0.648,1.911,0.512,3.941-0.385,5.745
		c-0.596,1.205-1.604,2.057-2.816,2.587c0.048-1.994-1.213-3.834-3.237-4.33c-2.326-0.562-4.673,0.857-5.237,3.201
		c-0.321,1.303,0.037,2.587,0.775,3.57c0.153,0.572,0.527,1.092,1.103,1.382c2.362,1.189,5.041,1.36,7.541,0.524
		c2.51-0.844,4.551-2.613,5.727-5.007c1.413-2.829,1.624-6.06,0.612-9.06c-1.019-3.003-3.133-5.405-5.965-6.8
		c-3.406-1.685-7.271-1.948-10.884-0.738c-3.607,1.221-6.523,3.758-8.217,7.169c-2.057,4.148-2.367,8.831-0.896,13.205
		c1.472,4.38,4.567,7.91,8.696,9.956c3.518,1.746,7.225,2.637,10.769,2.637c1.028,0,2.041-0.113,3.032-0.266
		c-5.574,3.235-12.451,4.126-18.938,1.685c-4.329-1.635-7.768-4.844-9.677-9.07c-1.914-4.224-2.066-8.923-0.432-13.258
		c0.416-1.112-0.148-2.365-1.261-2.792c-1.112-0.417-2.362,0.145-2.784,1.263c-2.041,5.411-1.846,11.288,0.548,16.551
		c2.39,5.266,6.677,9.295,12.093,11.325c13.685,5.152,29.024-1.793,34.177-15.47c0.264-0.709,0.47-1.427,0.686-2.139
		c0.026-0.071,0.068-0.116,0.095-0.174C142.521,42.372,142.511,42.301,142.532,42.219z M101.484,88.837
		c4.535,5.984,8.289,11.095,10.989,15.82c-0.09,0.464-0.053,0.965,0.195,1.418c5.342,9.756,4.245,18.178-3.085,23.741
		c-5.706,4.313-13.848,3.175-18.167-2.531c-3.301-4.382-2.431-10.642,1.94-13.938c1.604-1.224,3.57-1.714,5.563-1.461
		c1.993,0.29,3.75,1.318,4.963,2.921c0.849,1.129,1.149,2.469,1.06,3.766c-0.391-0.242-0.791-0.49-1.266-0.602
		c-2.315-0.596-4.683,0.786-5.284,3.122c-0.596,2.331,0.807,4.683,3.127,5.284c0.665,0.169,1.318,0.132,1.946,0.011
		c0.638,0.2,1.36,0.132,1.94-0.301c4.351-3.296,5.216-9.534,1.92-13.88c-1.909-2.525-4.683-4.16-7.815-4.598
		c-3.111-0.433-6.238,0.369-8.77,2.288c-6.271,4.73-7.525,13.69-2.784,19.976c3.396,4.493,8.574,6.861,13.811,6.861
		c3.285,0,6.571-0.986,9.472-2.896c-2.179,2.378-4.842,4.319-7.984,5.526c-5.595,2.142-11.923,1.962-17.387-0.527
		c-8.643-3.944-12.456-14.195-8.501-22.839c0.496-1.087,0.017-2.362-1.07-2.863c-1.086-0.491-2.365-0.017-2.86,1.07
		c-0.38,0.822-0.602,1.688-0.87,2.558c-0.264-0.854-0.485-1.709-0.865-2.558c-0.496-1.092-1.782-1.566-2.861-1.07
		c-1.086,0.506-1.566,1.776-1.07,2.863c3.947,8.653,0.134,18.89-8.503,22.839c-5.461,2.5-11.794,2.68-17.384,0.527
		c-3.138-1.223-5.804-3.148-7.981-5.526c2.905,1.914,6.188,2.896,9.466,2.896c5.239,0,10.423-2.363,13.819-6.861
		c4.736-6.285,3.489-15.245-2.787-19.976c-2.521-1.909-5.638-2.731-8.77-2.288c-3.135,0.432-5.906,2.072-7.812,4.598
		c-3.293,4.372-2.431,10.584,1.922,13.88c0.577,0.433,1.302,0.501,1.943,0.301c0.627,0.121,1.282,0.158,1.946-0.011
		c2.32-0.58,3.721-2.958,3.125-5.284c-0.594-2.336-2.959-3.718-5.282-3.122c-0.469,0.111-0.873,0.349-1.263,0.602
		c-0.092-1.297,0.211-2.637,1.061-3.766c1.207-1.603,2.969-2.631,4.962-2.921c1.991-0.274,3.968,0.242,5.571,1.461
		c4.375,3.296,5.245,9.561,1.941,13.933c-4.322,5.711-12.474,6.839-18.172,2.525c-7.333-5.537-8.435-13.975-3.088-23.73
		c0.243-0.453,0.28-0.954,0.198-1.418c2.7-4.715,6.455-9.819,10.99-15.815c1.993-2.621,4.164-5.242,6.368-7.853
		c0.269,2.811,1.445,5.464,3.644,7.763c2.247,2.342,5.255,3.513,8.267,3.513c2.848,0,5.698-1.039,7.913-3.164
		c1.403-1.34,2.294-3.022,2.7-4.789c0.398,1.767,1.295,3.449,2.7,4.789c2.212,2.125,5.065,3.164,7.907,3.164
		c3.022,0,6.028-1.188,8.274-3.513c2.193-2.299,3.375-4.952,3.644-7.763C97.318,83.6,99.48,86.205,101.484,88.837z M88.31,72.811
		c2.173,3.037,4.541,8.227,0.037,12.94c-2.721,2.816-7.24,2.933-10.072,0.222c-2.106-2.015-2.173-5.357-0.158-7.456
		c1.439-1.498,3.839-1.551,5.342-0.116c0.485,0.47,0.733,1.086,0.775,1.708c-1.376-0.031-2.573,0.96-2.716,2.348
		c-0.147,1.471,0.902,2.773,2.368,2.932c0.042,0.005,0.079-0.011,0.11-0.011c0.854,0.517,1.957,0.438,2.674-0.321
		c2.626-2.764,2.531-7.141-0.222-9.788c-3.228-3.09-8.363-2.969-11.459,0.248c-1.263,1.318-2.046,2.922-2.407,4.604
		c-0.361-1.682-1.139-3.27-2.407-4.604c-3.08-3.228-8.214-3.333-11.459-0.242c-2.74,2.626-2.834,7.019-0.216,9.782
		c0.712,0.759,1.825,0.822,2.674,0.321c0.037,0,0.068,0.016,0.113,0.011c1.463-0.158,2.516-1.461,2.365-2.932
		c-0.143-1.388-1.345-2.373-2.719-2.348c0.045-0.622,0.288-1.238,0.773-1.703c1.508-1.439,3.905-1.397,5.347,0.116
		c2.015,2.109,1.938,5.453-0.158,7.457c-2.834,2.71-7.354,2.604-10.075-0.222c-4.509-4.704-2.138-9.893,0.037-12.941
		c7.446-9.157,14.067-18.839,15.721-30.467C74.23,53.977,80.859,63.658,88.31,72.811z" />
	</g>
	<g>
	</g>
	<g>
	</g>
	<g>
	</g>
	<g>
	</g>
	<g>
	</g>
	<g>
	</g>
	<g>
	</g>
	<g>
	</g>
	<g>
	</g>
	<g>
	</g>
	<g>
	</g>
	<g>
	</g>
	<g>
	</g>
	<g>
	</g>
	<g>
	</g>
</svg>