<svg id="svg" version="1.1" xmlns="http://www.w3.org/2000/svg" xmlns:xlink="http://www.w3.org/1999/xlink" width="400"
    height="155.94727648086388" viewBox="0, 0, 400,155.94727648086388">
    <defs>
        <radialGradient id="grad1" cx="50%" cy="50%" r="50%" fx="50%" fy="50%">
            <stop offset="0%" style="stop-color:rgb(244, 203, 164);stop-opacity:1" />
            <stop offset="100%" style="stop-color:rgb(166,113,71);stop-opacity:1" />
        </radialGradient>
    </defs>
    <g id="svgg">
        <path id="path0"
            d="M4.173 0.320 C -1.150 2.478,-0.731 12.743,4.750 14.453 C 11.222 16.474,14.051 3.506,7.831 0.332 C 6.986 -0.099,5.221 -0.105,4.173 0.320 M106.097 1.618 C 103.227 2.495,101.357 8.117,102.829 11.445 C 103.015 11.865,103.167 12.271,103.167 12.346 C 103.167 13.316,105.480 15.326,107.074 15.741 C 111.706 16.946,114.813 10.100,112.139 4.583 C 110.847 1.917,108.650 0.839,106.097 1.618 M0.605 21.958 C 0.551 23.677,0.421 26.883,0.316 29.083 C -0.080 37.372,-0.083 50.533,0.311 52.423 C 0.669 54.136,1.244 55.964,1.513 56.242 C 1.598 56.329,1.667 56.503,1.667 56.629 C 1.667 57.960,4.917 61.112,7.077 61.875 C 8.885 62.513,12.851 61.999,13.833 60.998 C 13.879 60.952,14.217 60.717,14.583 60.476 C 17.002 58.890,21.465 53.004,24.355 47.589 C 24.776 46.801,25.167 46.431,25.167 46.821 C 25.167 47.414,28.499 51.000,29.050 51.000 C 29.105 51.000,29.472 51.216,29.867 51.480 C 30.261 51.744,30.996 52.126,31.500 52.329 C 32.004 52.532,32.604 52.774,32.833 52.867 C 36.105 54.193,45.418 54.662,54.333 53.949 C 66.831 52.949,75.141 53.332,79.297 55.101 C 79.598 55.229,79.915 55.333,80.002 55.333 C 80.794 55.333,84.225 57.403,85.633 58.731 L 86.516 59.564 85.716 59.788 C 85.277 59.911,84.692 60.076,84.417 60.153 C 81.030 61.109,77.941 61.868,74.583 62.569 C 73.942 62.703,72.892 62.923,72.250 63.059 C 71.608 63.194,70.446 63.430,69.667 63.583 C 67.168 64.076,64.953 64.541,61.667 65.263 C 58.320 65.998,53.402 67.267,51.624 67.854 C 50.502 68.225,49.358 68.591,49.083 68.668 C 48.808 68.744,47.946 69.047,47.167 69.341 C 46.387 69.635,45.450 69.984,45.083 70.117 C 43.407 70.726,38.392 73.317,36.526 74.540 C 36.282 74.699,35.915 74.918,35.708 75.025 C 35.502 75.132,35.333 75.283,35.333 75.360 C 35.333 75.437,35.256 75.500,35.162 75.500 C 34.961 75.500,33.276 76.800,33.194 77.018 C 33.164 77.100,33.070 77.167,32.986 77.167 C 32.805 77.167,32.727 77.237,30.422 79.500 C 23.565 86.229,21.228 94.379,23.972 102.000 C 24.737 104.124,24.891 104.495,25.680 106.101 C 26.500 107.772,27.457 109.365,27.705 109.472 C 27.775 109.503,27.835 109.615,27.836 109.722 C 27.839 109.915,27.982 110.091,29.788 112.130 C 30.733 113.197,32.659 114.833,32.968 114.833 C 33.062 114.833,33.164 114.891,33.194 114.961 C 33.393 115.418,36.583 117.006,38.500 117.603 C 43.324 119.105,49.325 118.971,55.500 117.224 C 56.004 117.081,56.595 116.895,56.813 116.810 C 57.265 116.633,57.265 116.638,56.674 118.167 C 55.996 119.919,55.636 120.920,55.504 121.417 C 54.436 125.448,54.122 127.052,53.835 129.964 C 53.500 133.375,53.723 138.206,54.323 140.500 C 54.941 142.864,55.485 144.485,56.095 145.784 C 56.319 146.260,56.580 146.823,56.675 147.034 C 57.657 149.211,60.326 152.176,62.526 153.534 C 67.005 156.297,73.981 156.668,79.500 154.435 C 79.821 154.305,80.496 154.038,81.000 153.841 C 81.504 153.643,82.067 153.421,82.250 153.346 C 82.914 153.074,85.429 151.811,85.917 151.504 C 86.192 151.331,86.691 151.039,87.026 150.856 C 87.765 150.451,89.899 148.941,90.571 148.348 C 92.285 146.835,95.055 143.869,95.664 142.895 C 95.799 142.678,95.968 142.500,96.039 142.500 C 96.109 142.500,96.167 142.387,96.167 142.250 C 96.167 142.112,96.230 142.000,96.307 142.000 C 96.384 142.000,96.537 141.831,96.647 141.625 C 96.907 141.136,97.129 140.777,97.855 139.667 C 98.751 138.298,99.021 137.808,100.340 135.167 C 101.725 132.392,102.064 131.646,102.724 129.917 C 103.516 127.839,103.817 127.015,104.003 126.417 C 104.117 126.050,104.303 125.487,104.417 125.167 C 104.691 124.392,105.063 123.160,105.422 121.833 C 105.584 121.237,105.855 120.306,106.024 119.764 C 106.194 119.222,106.333 118.654,106.333 118.502 C 106.333 118.350,106.436 117.894,106.562 117.488 C 107.375 114.857,109.064 105.475,109.739 99.833 C 110.866 90.411,111.519 80.528,111.624 71.290 L 111.706 64.163 112.228 63.728 C 115.391 61.092,123.235 53.221,124.764 51.148 C 124.985 50.849,125.224 50.562,125.296 50.510 C 125.727 50.201,130.037 44.199,130.277 43.573 C 130.351 43.381,130.176 43.335,129.393 43.341 L 128.417 43.348 127.750 44.378 C 127.110 45.368,124.551 48.828,124.332 49.000 C 124.274 49.046,123.892 49.496,123.483 50.000 C 121.532 52.410,119.943 54.101,115.602 58.388 L 111.750 62.193 111.721 56.972 C 111.567 29.627,111.154 23.578,109.310 21.694 C 108.132 20.490,104.213 19.554,103.469 20.298 C 103.362 20.404,103.248 23.238,103.164 27.859 C 103.089 31.924,102.897 38.063,102.737 41.500 L 102.445 47.750 101.781 48.861 C 100.641 50.767,98.176 53.335,96.241 54.632 C 94.861 55.557,92.217 57.049,90.750 57.731 C 89.833 58.158,88.865 58.621,88.597 58.761 C 88.119 59.012,88.099 59.005,87.347 58.291 C 83.793 54.914,80.503 53.395,74.583 52.397 C 72.589 52.061,63.126 52.016,60.083 52.328 C 47.716 53.598,37.622 52.597,34.851 49.825 C 33.475 48.449,33.006 45.617,33.577 42.135 C 33.810 40.709,33.939 40.150,34.452 38.333 C 35.056 36.195,36.947 31.860,37.979 30.250 C 38.213 29.883,38.549 29.321,38.724 29.000 C 39.432 27.701,41.956 24.744,43.206 23.749 C 49.393 18.822,52.145 29.259,47.555 40.245 C 46.859 41.910,46.847 41.833,47.808 41.833 C 48.731 41.833,48.701 41.877,49.633 39.167 C 50.874 35.560,51.206 33.892,51.291 30.833 C 51.362 28.268,51.332 28.001,50.685 25.583 C 49.033 19.403,40.158 17.133,33.583 21.210 C 30.376 23.199,26.242 28.251,25.163 31.500 C 25.087 31.729,24.828 32.442,24.588 33.083 C 23.429 36.182,23.100 40.916,23.853 43.663 L 24.205 44.950 23.313 46.683 C 22.256 48.735,18.980 53.765,18.330 54.333 C 18.277 54.379,17.890 54.867,17.470 55.417 C 13.936 60.039,11.583 61.096,10.126 58.714 C 8.679 56.350,8.415 55.138,8.425 50.917 C 8.433 47.416,8.501 46.714,9.328 41.667 C 9.501 40.612,9.757 39.000,9.897 38.083 C 12.064 23.932,9.922 18.835,1.810 18.834 L 0.703 18.833 0.605 21.958 M102.169 54.438 C 101.793 61.401,101.214 69.917,101.060 70.750 C 100.985 71.161,100.498 71.604,98.318 73.250 C 96.860 74.350,95.667 75.306,95.667 75.375 C 95.667 75.444,95.560 75.500,95.431 75.500 C 95.301 75.500,95.169 75.559,95.139 75.632 C 95.108 75.704,94.814 75.966,94.486 76.214 L 93.888 76.664 93.879 74.457 C 93.864 70.980,93.182 67.604,92.065 65.474 C 91.938 65.231,91.833 64.952,91.833 64.854 C 91.833 64.756,91.496 64.105,91.083 63.408 C 90.671 62.710,90.333 62.106,90.333 62.065 C 90.333 62.024,90.026 61.601,89.650 61.125 L 88.966 60.261 89.384 60.149 C 89.614 60.087,90.016 59.923,90.276 59.783 C 90.537 59.644,91.050 59.405,91.417 59.251 C 91.783 59.098,92.421 58.793,92.833 58.572 C 93.246 58.352,93.790 58.088,94.042 57.986 C 94.294 57.884,94.500 57.733,94.500 57.650 C 94.500 57.568,94.581 57.500,94.679 57.500 C 95.467 57.500,101.000 52.876,101.914 51.453 C 102.356 50.765,102.363 50.847,102.169 54.438 M87.410 61.125 C 88.709 64.505,88.080 70.143,85.886 74.787 C 84.769 77.153,80.238 84.334,79.338 85.167 C 79.289 85.212,78.916 85.700,78.510 86.250 C 78.104 86.800,77.728 87.287,77.674 87.333 C 77.620 87.379,77.262 87.816,76.879 88.303 C 76.172 89.204,75.210 90.320,73.425 92.311 C 72.149 93.735,66.912 98.972,65.479 100.259 C 63.775 101.788,63.507 102.014,62.167 103.055 C 61.479 103.589,60.892 104.095,60.861 104.180 C 60.831 104.264,60.699 104.333,60.569 104.333 C 60.440 104.333,60.333 104.401,60.333 104.485 C 60.333 104.568,59.996 104.849,59.584 105.110 C 59.171 105.370,58.834 105.640,58.834 105.708 C 58.833 105.777,58.747 105.833,58.642 105.833 C 58.537 105.833,58.131 106.096,57.739 106.417 C 57.348 106.737,56.946 107.000,56.847 107.000 C 56.748 107.000,56.667 107.063,56.667 107.140 C 56.667 107.217,56.498 107.368,56.292 107.475 C 56.085 107.582,55.715 107.801,55.469 107.960 C 53.212 109.421,50.791 110.715,47.583 112.174 C 42.136 114.653,34.854 114.380,31.590 111.575 C 30.419 110.568,29.333 109.497,29.333 109.346 C 29.333 109.257,29.236 109.123,29.117 109.050 C 27.182 107.860,24.477 100.128,24.465 95.750 C 24.445 88.884,29.551 80.625,36.292 76.622 C 36.590 76.445,36.833 76.242,36.833 76.170 C 36.833 76.098,36.965 75.994,37.125 75.938 C 37.285 75.883,37.642 75.687,37.917 75.504 C 38.192 75.320,38.529 75.117,38.667 75.052 C 38.804 74.987,39.442 74.624,40.083 74.246 C 43.229 72.392,48.853 70.134,53.333 68.926 C 53.929 68.765,54.817 68.491,55.306 68.317 C 55.796 68.143,56.364 68.000,56.568 68.000 C 56.773 68.000,57.273 67.897,57.679 67.772 C 58.085 67.646,59.017 67.412,59.750 67.251 C 60.483 67.090,61.496 66.861,62.000 66.743 C 62.504 66.624,63.554 66.402,64.333 66.250 C 65.883 65.947,67.083 65.701,69.500 65.193 C 70.371 65.010,71.683 64.736,72.417 64.584 C 73.150 64.432,74.200 64.210,74.750 64.089 C 75.300 63.969,76.350 63.744,77.083 63.589 C 79.258 63.131,80.277 62.868,83.583 61.915 C 85.227 61.441,86.230 61.132,86.583 60.990 C 87.105 60.780,87.289 60.810,87.410 61.125 M101.003 73.958 C 101.007 74.786,100.196 83.357,99.572 89.083 C 98.582 98.154,98.034 102.267,96.915 109.000 C 96.786 109.779,96.557 111.167,96.408 112.083 C 96.258 113.000,96.037 114.237,95.916 114.833 C 95.795 115.429,95.571 116.554,95.419 117.333 C 95.267 118.112,94.993 119.388,94.810 120.167 C 94.628 120.946,94.375 122.033,94.248 122.583 C 94.122 123.133,93.818 124.371,93.573 125.333 C 93.328 126.296,93.066 127.346,92.991 127.667 C 92.916 127.987,92.694 128.775,92.498 129.417 C 92.302 130.058,92.040 130.921,91.917 131.333 C 91.793 131.746,91.532 132.533,91.337 133.083 C 91.141 133.633,90.920 134.308,90.845 134.583 C 90.771 134.858,90.633 135.271,90.540 135.500 C 90.446 135.729,90.237 136.254,90.076 136.667 C 89.914 137.079,89.578 137.867,89.329 138.417 C 89.080 138.967,88.701 139.829,88.487 140.333 C 88.274 140.837,87.880 141.624,87.613 142.082 C 87.346 142.540,87.060 143.065,86.978 143.249 C 86.896 143.433,86.680 143.808,86.499 144.083 C 86.318 144.358,86.119 144.696,86.055 144.833 C 84.556 148.094,78.919 152.561,74.917 153.660 C 72.670 154.277,72.303 154.333,70.505 154.333 C 65.784 154.333,60.883 151.500,58.555 147.425 C 54.583 140.472,54.042 131.862,56.945 121.833 C 57.427 120.170,58.218 118.092,58.955 116.550 C 59.165 116.110,59.489 115.896,60.813 115.319 C 64.556 113.690,68.012 111.820,70.542 110.053 C 72.483 108.697,73.013 108.320,73.289 108.097 C 73.451 107.965,74.183 107.385,74.917 106.806 C 78.497 103.980,82.514 99.887,85.384 96.140 C 86.273 94.980,87.000 93.972,87.000 93.901 C 87.000 93.830,87.137 93.617,87.305 93.427 C 89.228 91.262,92.308 84.390,93.270 80.124 C 93.475 79.216,93.664 78.764,93.906 78.606 C 94.478 78.231,100.154 73.870,100.432 73.592 C 100.841 73.183,101.000 73.285,101.003 73.958 "
            stroke="none" fill="url(#grad1)" fill-rule="evenodd"></path>
        <path id="path1"
            d="M178.333 78.670 C 173.398 79.461,170.000 83.833,170.000 89.393 C 170.000 90.916,170.367 93.093,170.748 93.830 C 170.887 94.098,171.000 94.404,171.000 94.512 C 171.000 95.131,173.490 98.333,173.971 98.333 C 174.059 98.333,174.169 98.432,174.215 98.552 C 174.335 98.864,176.237 99.761,177.424 100.066 C 182.762 101.436,188.004 98.900,189.788 94.083 C 190.902 91.078,190.650 85.817,189.298 83.808 C 189.134 83.564,189.000 83.318,189.000 83.259 C 189.000 82.864,187.129 80.814,186.250 80.246 C 184.045 78.820,181.078 78.229,178.333 78.670 M230.000 78.659 C 225.103 79.395,221.794 83.728,221.784 89.417 C 221.777 93.860,223.445 97.088,226.833 99.187 C 229.733 100.982,235.794 100.686,237.988 98.642 C 238.170 98.472,238.367 98.333,238.424 98.333 C 239.366 98.333,241.651 94.312,242.070 91.917 C 243.529 83.573,237.965 77.462,230.000 78.659 M259.375 78.653 C 252.166 79.551,248.424 88.228,252.149 95.409 C 254.833 100.584,262.615 102.145,268.417 98.674 L 269.417 98.075 269.417 93.996 L 269.417 89.917 266.125 89.871 L 262.833 89.826 262.833 90.713 C 262.833 91.950,262.922 92.000,265.121 92.000 L 267.009 92.000 266.963 94.447 L 266.917 96.893 266.118 97.291 C 258.815 100.931,251.649 95.144,253.478 87.083 C 254.430 82.889,257.068 80.830,261.484 80.836 C 263.956 80.839,264.917 81.126,267.120 82.519 C 267.809 82.954,268.225 82.823,268.772 81.996 C 269.264 81.253,269.252 81.217,268.299 80.570 C 267.905 80.303,267.546 80.047,267.500 80.000 C 267.348 79.848,266.265 79.364,265.299 79.018 C 264.212 78.628,261.108 78.437,259.375 78.653 M120.958 78.762 C 120.890 78.832,120.833 83.676,120.833 89.528 L 120.833 100.167 122.083 100.167 L 123.333 100.167 123.333 96.083 L 123.333 92.000 125.635 92.000 C 128.503 92.000,131.833 91.177,131.833 90.469 C 131.833 90.394,131.913 90.333,132.011 90.333 C 132.256 90.333,133.312 89.192,133.622 88.593 C 135.345 85.261,134.338 81.348,131.333 79.693 C 129.925 78.918,121.545 78.166,120.958 78.762 M143.611 78.778 C 143.550 78.839,143.500 83.676,143.500 89.528 L 143.500 100.167 144.750 100.167 L 146.000 100.167 146.000 95.250 L 146.000 90.333 151.917 90.333 L 157.833 90.333 157.833 95.250 L 157.833 100.167 159.083 100.167 L 160.333 100.167 160.333 89.409 L 160.333 78.652 159.125 78.701 L 157.917 78.750 157.872 83.542 L 157.828 88.333 151.914 88.333 L 146.000 88.333 146.000 83.500 L 146.000 78.667 144.861 78.667 C 144.235 78.667,143.672 78.717,143.611 78.778 M197.667 79.833 L 197.667 81.000 201.333 81.000 L 205.000 81.000 205.000 90.583 L 205.000 100.167 206.250 100.167 L 207.500 100.167 207.500 90.583 L 207.500 81.000 211.083 81.000 L 214.667 81.000 214.667 79.833 L 214.667 78.667 206.167 78.667 L 197.667 78.667 197.667 79.833 M280.000 89.398 L 280.000 100.167 281.250 100.167 L 282.500 100.167 282.500 95.583 L 282.500 91.000 283.891 91.000 L 285.282 91.000 285.958 91.792 C 286.330 92.227,287.397 93.558,288.329 94.750 C 289.260 95.942,290.551 97.592,291.196 98.417 C 292.628 100.250,292.527 100.191,294.180 100.132 L 295.532 100.083 294.503 98.750 C 293.937 98.017,293.405 97.392,293.320 97.361 C 293.236 97.331,293.167 97.206,293.167 97.083 C 293.167 96.961,293.099 96.836,293.016 96.806 C 292.934 96.775,292.458 96.220,291.959 95.573 C 291.461 94.926,290.897 94.213,290.707 93.990 C 289.720 92.831,288.167 90.808,288.167 90.683 C 288.167 90.604,288.488 90.459,288.880 90.360 C 291.487 89.704,293.167 87.456,293.167 84.626 C 293.167 80.189,291.096 78.858,283.958 78.710 L 280.000 78.628 280.000 89.398 M309.016 79.625 C 308.808 80.152,308.573 80.733,308.494 80.917 C 308.416 81.100,308.189 81.662,307.991 82.167 C 307.792 82.671,307.532 83.308,307.412 83.583 C 307.292 83.858,306.918 84.758,306.581 85.583 C 306.244 86.408,305.872 87.308,305.755 87.583 C 305.638 87.858,305.411 88.421,305.251 88.833 C 304.908 89.719,304.881 89.785,304.028 91.833 C 303.665 92.704,303.127 94.017,302.832 94.750 C 302.536 95.483,302.197 96.308,302.079 96.583 C 300.359 100.562,300.391 100.167,301.792 100.164 C 303.337 100.161,303.182 100.354,304.668 96.583 C 305.138 95.392,305.582 94.304,305.654 94.167 C 305.766 93.955,306.505 93.910,310.453 93.872 L 315.119 93.828 315.626 95.039 C 315.905 95.705,316.295 96.662,316.493 97.167 C 316.833 98.031,317.122 98.703,317.568 99.667 C 317.747 100.051,317.861 100.087,319.047 100.132 C 320.439 100.185,320.446 100.181,320.099 99.526 C 319.969 99.282,319.703 98.671,319.506 98.167 C 319.310 97.662,319.085 97.100,319.008 96.917 C 318.930 96.733,318.593 95.908,318.257 95.083 C 317.922 94.258,317.581 93.433,317.498 93.250 C 317.416 93.067,317.154 92.429,316.917 91.833 C 316.679 91.237,316.422 90.600,316.344 90.417 C 316.267 90.233,315.974 89.521,315.695 88.833 C 313.956 84.562,312.373 80.712,312.097 80.083 C 311.976 79.808,311.794 79.377,311.692 79.125 C 311.518 78.693,311.447 78.667,310.451 78.667 L 309.395 78.667 309.016 79.625 M328.667 89.399 L 328.667 100.167 329.917 100.167 L 331.167 100.167 331.167 96.083 L 331.167 92.000 333.458 91.997 C 339.085 91.990,342.175 89.623,342.159 85.333 C 342.140 80.495,339.760 78.856,332.542 78.710 L 328.667 78.632 328.667 89.399 M351.167 89.417 L 351.167 100.167 352.417 100.167 L 353.667 100.167 353.667 95.250 L 353.667 90.333 359.583 90.333 L 365.500 90.333 365.500 95.250 L 365.500 100.167 366.750 100.167 L 368.000 100.167 368.000 89.417 L 368.000 78.667 366.750 78.667 L 365.500 78.667 365.500 83.500 L 365.500 88.333 359.583 88.333 L 353.667 88.333 353.667 83.500 L 353.667 78.667 352.417 78.667 L 351.167 78.667 351.167 89.417 M376.000 78.851 C 376.000 78.952,376.206 79.346,376.458 79.726 C 376.710 80.106,377.023 80.623,377.153 80.875 C 377.283 81.127,377.452 81.333,377.528 81.333 C 377.604 81.333,377.667 81.416,377.667 81.517 C 377.667 81.619,377.892 82.035,378.167 82.443 C 378.442 82.850,378.667 83.212,378.667 83.246 C 378.667 83.281,379.042 83.875,379.500 84.567 C 379.958 85.259,380.333 85.902,380.333 85.996 C 380.333 86.090,380.399 86.167,380.480 86.167 C 380.560 86.167,380.719 86.392,380.833 86.667 C 380.947 86.942,381.106 87.167,381.187 87.167 C 381.267 87.167,381.333 87.250,381.333 87.351 C 381.333 87.452,381.558 87.868,381.833 88.276 C 382.108 88.683,382.333 89.076,382.333 89.149 C 382.333 89.222,382.483 89.417,382.667 89.583 C 382.850 89.749,383.000 89.945,383.000 90.018 C 383.000 90.092,383.188 90.428,383.417 90.766 L 383.833 91.380 383.833 95.773 L 383.833 100.167 385.083 100.167 L 386.333 100.167 386.333 95.773 L 386.333 91.380 386.750 90.766 C 386.979 90.428,387.167 90.124,387.167 90.090 C 387.167 90.056,387.542 89.467,388.000 88.782 C 388.458 88.097,388.833 87.453,388.833 87.351 C 388.833 87.250,388.896 87.167,388.973 87.167 C 389.050 87.167,389.196 86.985,389.297 86.763 C 389.398 86.541,389.916 85.698,390.448 84.888 C 391.477 83.322,391.713 82.946,392.000 82.417 C 392.282 81.896,392.526 81.507,393.376 80.217 C 394.394 78.673,394.393 78.667,393.022 78.667 C 391.895 78.667,391.000 79.044,391.000 79.519 C 391.000 79.608,390.922 79.771,390.827 79.882 C 390.487 80.278,389.333 82.155,389.333 82.312 C 389.333 82.400,389.276 82.497,389.206 82.528 C 389.135 82.558,388.744 83.146,388.336 83.833 C 387.928 84.521,387.551 85.121,387.500 85.167 C 387.449 85.212,387.072 85.813,386.664 86.500 C 386.256 87.188,385.865 87.775,385.794 87.806 C 385.724 87.836,385.667 87.932,385.667 88.020 C 385.667 88.107,385.546 88.363,385.398 88.588 L 385.130 88.998 384.815 88.598 C 384.642 88.378,384.500 88.159,384.500 88.111 C 384.500 88.063,384.125 87.458,383.667 86.766 C 383.208 86.074,382.833 85.437,382.833 85.351 C 382.833 85.265,382.776 85.169,382.706 85.139 C 382.635 85.108,382.243 84.521,381.833 83.833 C 381.424 83.146,381.031 82.558,380.961 82.528 C 380.891 82.497,380.833 82.402,380.833 82.316 C 380.833 82.229,380.458 81.593,380.000 80.901 C 379.542 80.208,379.167 79.578,379.167 79.500 C 379.167 79.422,378.969 79.202,378.728 79.012 C 378.234 78.624,376.000 78.492,376.000 78.851 M129.005 81.226 C 132.228 82.192,133.078 86.338,130.504 88.541 C 129.399 89.487,128.051 89.833,125.472 89.833 L 123.333 89.833 123.333 85.312 L 123.333 80.791 125.708 80.871 C 127.223 80.921,128.417 81.050,129.005 81.226 M182.856 81.113 C 190.158 83.401,189.707 96.340,182.268 97.936 C 176.661 99.140,172.518 95.525,172.504 89.416 C 172.489 83.279,177.342 79.386,182.856 81.113 M234.538 81.098 C 237.909 82.354,239.838 85.425,239.831 89.524 C 239.829 91.118,239.024 94.278,238.521 94.667 C 238.462 94.712,238.227 95.034,237.999 95.381 C 236.184 98.139,230.523 99.091,227.859 97.085 C 224.294 94.401,223.073 88.347,225.343 84.612 C 225.519 84.321,225.716 83.971,225.779 83.833 C 226.821 81.581,231.724 80.050,234.538 81.098 M287.427 81.091 C 290.122 81.647,291.258 83.285,290.665 85.757 C 290.135 87.967,288.477 88.833,284.777 88.833 L 282.500 88.833 282.500 84.833 L 282.500 80.833 284.340 80.833 C 285.353 80.833,286.741 80.949,287.427 81.091 M336.117 81.096 C 338.556 81.599,339.667 82.914,339.667 85.297 C 339.667 88.357,337.568 89.833,333.220 89.833 L 331.167 89.833 331.167 85.333 L 331.167 80.833 333.007 80.833 C 334.032 80.833,335.410 80.950,336.117 81.096 M310.833 83.094 C 310.833 83.202,311.067 83.844,311.353 84.520 C 311.833 85.654,312.384 86.986,313.344 89.333 C 313.550 89.837,313.851 90.606,314.012 91.042 L 314.305 91.833 310.486 91.833 C 308.385 91.833,306.667 91.799,306.667 91.758 C 306.667 91.665,306.807 91.308,307.551 89.500 C 308.121 88.113,308.941 86.078,309.463 84.750 C 309.608 84.383,309.862 83.769,310.029 83.384 C 310.197 83.000,310.336 82.587,310.339 82.467 C 310.345 82.196,310.833 82.814,310.833 83.094 "
            stroke="none" fill="#545454" fill-rule="evenodd"></path>
    </g>
</svg>